HIERARCHY
ROOT Hips
{
	OFFSET 0.000000 100.481300 0.000000
	CHANNELS 6 Xposition Yposition Zposition Xrotation Yrotation Zrotation
	JOINT Spine
	{
		OFFSET -0.279200 12.230698 -2.892100
		CHANNELS 3 Xrotation Yrotation Zrotation
		JOINT Spine1
		{
			OFFSET -0.325700 14.269203 -3.374200
			CHANNELS 3 Xrotation Yrotation Zrotation
			JOINT Spine2
			{
				OFFSET -0.372300 16.307602 -0.352600
				CHANNELS 3 Xrotation Yrotation Zrotation
				JOINT Neck
				{
					OFFSET -0.418800 17.814194 8.416900
					CHANNELS 3 Xrotation Yrotation Zrotation
					JOINT Head
					{
						OFFSET 0.000000 7.031097 3.806800
						CHANNELS 3 Xrotation Yrotation Zrotation
						JOINT HeadTop_End
						{
							OFFSET 0.000000 24.646606 12.978600
							CHANNELS 3 Xrotation Yrotation Zrotation
							End Site
							{
								OFFSET 0.000000 27.854965 0.000000
							}
						}
					}
				}
				JOINT LeftShoulder
				{
					OFFSET 16.952999 14.495407 -7.737500
					CHANNELS 3 Xrotation Yrotation Zrotation
					JOINT LeftArm
					{
						OFFSET 9.308998 -2.777710 0.208600
						CHANNELS 3 Xrotation Yrotation Zrotation
						JOINT LeftForeArm
						{
							OFFSET 29.972298 0.000000 0.000000
							CHANNELS 3 Xrotation Yrotation Zrotation
							JOINT LeftHand
							{
								OFFSET 26.026505 0.000000 0.000000
								CHANNELS 3 Xrotation Yrotation Zrotation
								JOINT LeftHandThumb1
								{
									OFFSET 12.240501 -7.147949 9.207150
									CHANNELS 3 Xrotation Yrotation Zrotation
									JOINT LeftHandThumb2
									{
										OFFSET 4.138618 -2.389435 2.389433
										CHANNELS 3 Xrotation Yrotation Zrotation
										JOINT LeftHandThumb3
										{
											OFFSET 2.726913 -1.574387 1.574386
											CHANNELS 3 Xrotation Yrotation Zrotation
											JOINT LeftHandThumb4
											{
												OFFSET 3.941010 -2.275345 2.275342
												CHANNELS 3 Xrotation Yrotation Zrotation
												End Site
												{
													OFFSET -0.005798 5.087799 0.009903
												}
											}
										}
									}
								}
								JOINT LeftHandIndex1
								{
									OFFSET 24.424698 -1.985611 5.953459
									CHANNELS 3 Xrotation Yrotation Zrotation
									JOINT LeftHandIndex2
									{
										OFFSET 6.426697 0.000000 0.000000
										CHANNELS 3 Xrotation Yrotation Zrotation
										JOINT LeftHandIndex3
										{
											OFFSET 5.337898 0.000000 0.000000
											CHANNELS 3 Xrotation Yrotation Zrotation
											JOINT LeftHandIndex4
											{
												OFFSET 4.409401 0.000000 0.000000
												CHANNELS 3 Xrotation Yrotation Zrotation
												End Site
												{
													OFFSET 0.000000 4.409363 0.014373
												}
											}
										}
									}
								}
								JOINT LeftHandMiddle1
								{
									OFFSET 23.810104 0.000000 0.000000
									CHANNELS 3 Xrotation Yrotation Zrotation
									JOINT LeftHandMiddle2
									{
										OFFSET 7.176498 0.000000 0.000000
										CHANNELS 3 Xrotation Yrotation Zrotation
										JOINT LeftHandMiddle3
										{
											OFFSET 6.774902 0.000000 0.000000
											CHANNELS 3 Xrotation Yrotation Zrotation
											JOINT LeftHandMiddle4
											{
												OFFSET 5.403328 0.000000 0.000000
												CHANNELS 3 Xrotation Yrotation Zrotation
												End Site
												{
													OFFSET -0.027702 5.403244 0.017414
												}
											}
										}
									}
								}
								JOINT LeftHandRing1
								{
									OFFSET 22.908401 -0.839279 -6.020567
									CHANNELS 3 Xrotation Yrotation Zrotation
									JOINT LeftHandRing2
									{
										OFFSET 6.337502 0.000000 0.000000
										CHANNELS 3 Xrotation Yrotation Zrotation
										JOINT LeftHandRing3
										{
											OFFSET 5.779297 0.000000 0.000000
											CHANNELS 3 Xrotation Yrotation Zrotation
											JOINT LeftHandRing4
											{
												OFFSET 4.965698 0.000000 0.000000
												CHANNELS 3 Xrotation Yrotation Zrotation
												End Site
												{
													OFFSET 0.000000 4.965668 0.016186
												}
											}
										}
									}
								}
								JOINT LeftHandPinky1
								{
									OFFSET 20.037003 -1.530319 -10.950146
									CHANNELS 3 Xrotation Yrotation Zrotation
									JOINT LeftHandPinky2
									{
										OFFSET 5.254700 0.000000 0.000000
										CHANNELS 3 Xrotation Yrotation Zrotation
										JOINT LeftHandPinky3
										{
											OFFSET 4.810204 0.000000 0.000000
											CHANNELS 3 Xrotation Yrotation Zrotation
											JOINT LeftHandPinky4
											{
												OFFSET 3.647202 0.000000 0.000000
												CHANNELS 3 Xrotation Yrotation Zrotation
												End Site
												{
													OFFSET 0.000000 3.647186 0.011889
												}
											}
										}
									}
								}
							}
						}
					}
				}
				JOINT RightShoulder
				{
					OFFSET -15.141001 14.495407 -7.737500
					CHANNELS 3 Xrotation Yrotation Zrotation
					JOINT RightArm
					{
						OFFSET -9.308998 -2.777710 0.208500
						CHANNELS 3 Xrotation Yrotation Zrotation
						JOINT RightForeArm
						{
							OFFSET -29.972300 0.000000 0.000000
							CHANNELS 3 Xrotation Yrotation Zrotation
							JOINT RightHand
							{
								OFFSET -26.026505 0.000000 0.000000
								CHANNELS 3 Xrotation Yrotation Zrotation
								JOINT RightHandThumb1
								{
									OFFSET -12.240601 -7.148026 9.207092
									CHANNELS 3 Xrotation Yrotation Zrotation
									JOINT RightHandThumb2
									{
										OFFSET -4.138618 -2.389435 2.389433
										CHANNELS 3 Xrotation Yrotation Zrotation
										JOINT RightHandThumb3
										{
											OFFSET -2.726974 -1.574417 1.574421
											CHANNELS 3 Xrotation Yrotation Zrotation
											JOINT RightHandThumb4
											{
												OFFSET -3.941010 -2.275345 2.275343
												CHANNELS 3 Xrotation Yrotation Zrotation
												End Site
												{
													OFFSET 0.005814 5.087799 0.009927
												}
											}
										}
									}
								}
								JOINT RightHandIndex1
								{
									OFFSET -24.424698 -1.985657 5.953444
									CHANNELS 3 Xrotation Yrotation Zrotation
									JOINT RightHandIndex2
									{
										OFFSET -6.426697 0.000000 0.000000
										CHANNELS 3 Xrotation Yrotation Zrotation
										JOINT RightHandIndex3
										{
											OFFSET -5.337898 0.000000 0.000000
											CHANNELS 3 Xrotation Yrotation Zrotation
											JOINT RightHandIndex4
											{
												OFFSET -4.409401 0.000000 0.000000
												CHANNELS 3 Xrotation Yrotation Zrotation
												End Site
												{
													OFFSET 0.000000 4.409363 0.014408
												}
											}
										}
									}
								}
								JOINT RightHandMiddle1
								{
									OFFSET -23.810097 0.000000 0.000000
									CHANNELS 3 Xrotation Yrotation Zrotation
									JOINT RightHandMiddle2
									{
										OFFSET -7.176498 0.000000 0.000000
										CHANNELS 3 Xrotation Yrotation Zrotation
										JOINT RightHandMiddle3
										{
											OFFSET -6.774902 0.000000 0.000000
											CHANNELS 3 Xrotation Yrotation Zrotation
											JOINT RightHandMiddle4
											{
												OFFSET -5.403328 0.000000 0.000000
												CHANNELS 3 Xrotation Yrotation Zrotation
												End Site
												{
													OFFSET 0.027702 5.403244 0.017457
												}
											}
										}
									}
								}
								JOINT RightHandRing1
								{
									OFFSET -22.908302 -0.839325 -6.020576
									CHANNELS 3 Xrotation Yrotation Zrotation
									JOINT RightHandRing2
									{
										OFFSET -6.337502 0.000000 0.000000
										CHANNELS 3 Xrotation Yrotation Zrotation
										JOINT RightHandRing3
										{
											OFFSET -5.779297 0.000000 0.000000
											CHANNELS 3 Xrotation Yrotation Zrotation
											JOINT RightHandRing4
											{
												OFFSET -4.965698 0.000000 0.000000
												CHANNELS 3 Xrotation Yrotation Zrotation
												End Site
												{
													OFFSET 0.000000 4.965668 0.016226
												}
											}
										}
									}
								}
								JOINT RightHandPinky1
								{
									OFFSET -20.037003 -1.530334 -10.950259
									CHANNELS 3 Xrotation Yrotation Zrotation
									JOINT RightHandPinky2
									{
										OFFSET -5.254700 0.000000 0.000000
										CHANNELS 3 Xrotation Yrotation Zrotation
										JOINT RightHandPinky3
										{
											OFFSET -4.810204 0.000000 0.000000
											CHANNELS 3 Xrotation Yrotation Zrotation
											JOINT RightHandPinky4
											{
												OFFSET -3.647202 0.000000 0.000000
												CHANNELS 3 Xrotation Yrotation Zrotation
												End Site
												{
													OFFSET 0.000000 3.647186 0.011917
												}
											}
										}
									}
								}
							}
						}
					}
				}
			}
		}
	}
	JOINT LeftUpLeg
	{
		OFFSET 15.427100 -6.655098 0.678600
		CHANNELS 3 Xrotation Yrotation Zrotation
		JOINT LeftLeg
		{
			OFFSET 4.081073 -39.591068 13.024000
			CHANNELS 3 Xrotation Yrotation Zrotation
			JOINT LeftFoot
			{
				OFFSET -4.081074 -37.707932 -15.979700
				CHANNELS 3 Xrotation Yrotation Zrotation
				JOINT LeftToeBase
				{
					OFFSET 5.346399 -15.068900 20.645000
					CHANNELS 3 Xrotation Yrotation Zrotation
					JOINT LeftToe_End
					{
						OFFSET 2.754700 0.931300 11.300900
						CHANNELS 3 Xrotation Yrotation Zrotation
						End Site
						{
							OFFSET 0.000000 11.669021 0.000000
						}
					}
				}
			}
		}
	}
	JOINT RightUpLeg
	{
		OFFSET -15.569500 -6.655098 0.678600
		CHANNELS 3 Xrotation Yrotation Zrotation
		JOINT RightLeg
		{
			OFFSET -4.081825 -39.591045 13.023800
			CHANNELS 3 Xrotation Yrotation Zrotation
			JOINT RightFoot
			{
				OFFSET 4.081824 -37.707954 -15.979600
				CHANNELS 3 Xrotation Yrotation Zrotation
				JOINT RightToeBase
				{
					OFFSET -5.346400 -15.068900 20.645000
					CHANNELS 3 Xrotation Yrotation Zrotation
					JOINT RightToe_End
					{
						OFFSET -2.754700 0.931300 11.300900
						CHANNELS 3 Xrotation Yrotation Zrotation
						End Site
						{
							OFFSET 0.000000 11.669021 0.000000
						}
					}
				}
			}
		}
	}
}
MOTION
Frames: 6
Frame Time: 0.033333
-11.370216 73.685181 -9.526787 17.076415 -22.918217 6.369364 12.981989 -2.559572 -3.837238 23.144724 -4.058045 -5.225978 23.125603 -4.042516 -5.299947 5.143920 3.312497 -2.088886 -9.840131 14.797682 -0.569607 0.000001 -0.000000 -0.000000 1.755724 -5.589579 18.859453 -45.498854 -29.886736 -45.320091 -0.000003 -40.025042 -0.000004 -21.316399 -16.672661 41.589305 -0.559988 11.396718 0.415829 -0.854390 22.513857 1.784294 2.253592 41.464084 5.767379 -0.000002 0.000001 0.000000 1.366736 4.122400 -36.671812 9.109516 6.512055 -108.936750 7.844055 6.813801 -98.062747 0.000000 -0.000003 0.000001 1.365571 4.120854 -36.655761 9.111363 6.511419 -108.952937 7.844050 6.813801 -98.062733 -0.000000 0.000002 -0.000001 2.773189 5.525168 -53.279318 9.109495 6.512045 -108.936763 7.844064 6.813791 -98.062733 0.000000 -0.000003 -0.000001 5.423738 7.095360 -60.101082 9.081769 2.433843 -108.649486 7.845639 6.813575 -98.076148 0.000002 -0.000002 0.000001 5.035913 18.371262 -7.878774 -85.154079 50.023083 79.043525 -0.000036 46.435796 0.000042 2.029568 -20.807965 -4.912313 -1.468291 10.223127 -4.437078 6.419162 -32.609990 -1.646432 0.796532 -23.604577 -4.397393 -0.000002 0.000000 0.000002 0.331084 -2.124033 17.718011 7.693787 -6.908308 96.174821 6.295484 -6.917648 84.596182 -0.000001 -0.000002 -0.000000 0.331085 -2.124033 17.718009 7.693791 -6.908312 96.174821 6.295489 -6.917654 84.596196 -0.000000 0.000000 0.000000 2.576442 -5.405751 50.940316 7.693783 -6.908300 96.174849 6.295474 -6.917640 84.596169 -0.000001 0.000001 -0.000000 3.995925 -6.292603 64.801413 7.693798 -6.908314 96.174842 6.295465 -6.917643 84.596162 -0.000000 -0.000002 0.000001 -56.636130 1.686181 36.090743 45.333745 -3.338813 -0.866223 0.668442 2.848282 -24.213403 -1.951614 0.000007 0.000003 -0.000000 0.000000 0.000000 -57.703152 -3.028403 -18.713433 58.905286 2.818567 3.631108 -15.788529 -2.372295 7.986667 -1.310140 -0.000015 0.000001 0.000000 0.000002 0.000000 
-11.183145 73.985542 -9.467705 15.992627 -23.728104 5.949224 12.775246 -2.589569 -3.877904 22.866681 -4.156271 -5.271251 22.861854 -4.143699 -5.343266 4.350560 3.361867 -1.996267 -12.225560 15.502067 -1.013885 -0.000000 -0.000000 0.000000 1.818336 -5.786022 18.790545 -42.511336 -26.118691 -44.477680 0.000002 -45.748054 -0.000019 -17.670275 -13.013937 43.303526 -0.586162 8.946833 0.714559 -0.143033 24.244098 1.981017 2.143949 39.399888 5.623656 0.000001 -0.000001 -0.000001 0.860963 3.338995 -28.910808 8.753449 6.622784 -105.824335 7.473170 6.855799 -94.946904 -0.000000 0.000001 0.000000 0.860039 3.337304 -28.894760 8.755331 6.622245 -105.840529 7.473164 6.855792 -94.946924 0.000000 -0.000001 -0.000002 2.223315 5.070684 -47.329437 8.753471 6.622763 -105.824349 7.473159 6.855799 -94.946938 -0.000000 -0.000002 0.000000 5.020437 7.094091 -54.964376 8.727596 2.542759 -105.565963 7.474702 6.855676 -94.959813 0.000001 0.000001 -0.000002 4.849684 17.704897 -7.772742 -86.423995 50.213218 80.541044 0.000034 47.241833 -0.000030 1.022794 -21.911698 -5.053531 -1.998343 10.959557 -4.318264 6.730427 -33.292032 -1.664976 0.532928 -22.870076 -4.302209 -0.000003 -0.000001 -0.000000 0.005512 -0.276947 2.273076 6.789507 -6.946430 88.687916 5.402062 -6.774848 77.111852 0.000002 -0.000001 -0.000001 0.005513 -0.276947 2.273075 6.789508 -6.946427 88.687910 5.402060 -6.774836 77.111832 0.000000 -0.000001 -0.000001 1.289552 -4.038594 35.404846 6.789537 -6.946442 88.687937 5.402035 -6.774817 77.111825 -0.000001 0.000000 -0.000002 2.489567 -5.334384 50.012083 6.789520 -6.946432 88.687950 5.402046 -6.774839 77.111886 -0.000003 -0.000000 -0.000001 -55.137248 2.154356 36.149370 45.312609 -3.014698 -0.325024 0.288268 2.950435 -24.528138 -1.911112 -0.000001 0.000014 -0.000000 -0.000000 -0.000000 -56.531150 -3.186849 -18.137354 58.300739 2.947794 3.213968 -15.379347 -2.319886 8.034407 -1.315394 -0.000010 -0.000002 -0.000000 0.000003 0.000000 
-10.906419 74.293152 -9.360218 15.126373 -24.436636 5.541490 12.539503 -2.683457 -3.902883 22.515913 -4.388071 -5.297879 22.511786 -4.379761 -5.370851 3.403070 3.481038 -1.918137 -14.972514 16.470120 -1.237983 0.000002 -0.000000 -0.000001 1.911309 -6.079682 18.786679 -39.337266 -22.213809 -43.696846 0.000005 -51.068942 -0.000002 -14.398742 -9.513324 45.143565 -0.702682 4.248309 1.347077 1.243171 27.594115 2.301052 1.922292 35.410754 5.343016 -0.000001 -0.000002 -0.000001 0.437567 2.419747 -20.497220 8.155085 6.762805 -100.693729 6.858744 6.881159 -89.812575 -0.000002 0.000001 0.000000 0.436897 2.417940 -20.481196 8.157000 6.762442 -100.709930 6.858741 6.881180 -89.812562 -0.000001 0.000000 -0.000002 1.619361 4.440656 -40.054364 8.155108 6.762806 -100.693736 6.858724 6.881148 -89.812575 0.000000 -0.000003 0.000001 4.457798 7.052484 -48.257049 8.133045 2.680182 -100.485552 6.860195 6.881165 -89.824624 -0.000000 0.000003 0.000001 4.717630 17.295386 -7.622101 -87.687464 50.425548 82.190856 0.000019 47.655275 -0.000026 1.262687 -22.714214 -4.792379 -1.995613 10.955760 -4.318869 6.728839 -33.288549 -1.664886 0.534288 -22.873860 -4.302700 -0.000000 0.000001 0.000002 0.133143 1.356882 -11.207466 5.680074 -6.832070 79.458473 4.338892 -6.441881 67.893112 -0.000001 -0.000005 -0.000001 0.133144 1.356882 -11.207469 5.680077 -6.832074 79.458473 4.338882 -6.441895 67.893125 -0.000002 -0.000003 0.000001 0.401305 -2.332262 19.523978 5.680073 -6.832102 79.458466 4.338872 -6.441888 67.893112 0.000001 0.000000 0.000000 1.197919 -3.906815 34.082244 5.680064 -6.832081 79.458466 4.338859 -6.441889 67.893112 -0.000000 0.000001 0.000001 -53.917209 2.564887 36.188641 45.334394 -2.712894 0.072563 -0.102177 3.048803 -24.672505 -1.867157 -0.000005 -0.000007 0.000000 -0.000000 -0.000000 -55.515310 -3.338528 -17.661466 57.609470 3.098210 2.830141 -14.916121 -2.291441 8.173132 -1.319549 -0.000015 0.000001 0.000000 -0.000002 -0.000000 
-10.561698 74.627281 -9.228296 14.530415 -25.102041 5.198337 12.292273 -2.819098 -3.924351 22.127083 -4.707169 -5.327700 22.097511 -4.704637 -5.403042 2.338315 3.651529 -1.865262 -17.984008 17.523139 -1.135102 0.000001 -0.000000 0.000000 1.951270 -6.198405 18.648563 -36.506753 -18.244643 -43.453961 -0.000017 -55.787066 -0.000003 -11.188817 -6.703014 46.544666 -0.952471 -1.357310 2.193911 2.950990 31.647948 2.575231 1.637300 30.594101 4.996643 -0.000002 -0.000000 0.000000 0.147841 1.422014 -11.870481 7.358829 6.864670 -93.989557 6.057318 6.831916 -83.107167 -0.000001 -0.000001 0.000001 0.147441 1.420128 -11.854502 7.360776 6.864533 -94.005772 6.057302 6.831917 -83.107153 -0.000001 -0.000002 -0.000001 1.043316 3.649151 -31.902130 7.358807 6.864677 -93.989523 6.057304 6.831907 -83.107160 -0.000002 -0.000002 0.000001 3.752579 6.927204 -40.426390 7.342659 2.779438 -93.850686 6.058586 6.832069 -83.117829 -0.000001 -0.000002 -0.000003 4.672380 17.225848 -7.476775 -88.564488 50.734242 83.509021 -0.000009 47.894991 0.000012 2.317110 -22.149506 -4.331664 -1.996165 10.956543 -4.318733 6.729139 -33.289277 -1.664912 0.534015 -22.873088 -4.302603 -0.000001 -0.000003 -0.000001 0.471116 2.520281 -21.172407 4.518341 -6.511434 69.484102 3.266407 -5.896599 57.938480 0.000001 -0.000002 -0.000000 0.471117 2.520281 -21.172405 4.518344 -6.511440 69.484102 3.266398 -5.896605 57.938480 -0.000001 0.000001 -0.000002 0.025000 -0.590217 4.849112 4.518350 -6.511449 69.484102 3.266401 -5.896605 57.938480 -0.000001 -0.000001 -0.000001 0.364216 -2.224967 18.590986 4.518344 -6.511444 69.484102 3.266408 -5.896603 57.938487 -0.000002 0.000003 0.000002 -52.995185 2.997027 36.321505 45.323015 -2.473472 0.225762 -0.461510 3.129286 -24.592817 -1.824595 -0.000001 -0.000008 -0.000000 -0.000000 -0.000000 -54.723131 -3.491823 -17.235651 56.796042 3.295741 2.486257 -14.354110 -2.268470 8.338815 -1.322337 -0.000012 -0.000002 -0.000000 -0.000002 -0.000000 
-10.156075 74.989891 -9.092836 14.086493 -25.732857 4.900808 12.079005 -2.956235 -3.908452 21.795086 -5.030901 -5.301335 21.749846 -5.035028 -5.378866 1.196934 3.838986 -1.866966 -21.149128 18.510286 -0.898082 0.000001 0.000000 0.000000 1.915955 -6.072072 18.340212 -34.180678 -14.580820 -43.689247 -0.000023 -59.848590 -0.000027 -8.384324 -4.747820 47.005075 -1.292355 -6.586439 3.061905 4.620217 35.488027 2.710168 1.349574 26.038812 4.658593 -0.000000 0.000001 0.000000 0.012649 0.418054 -3.466346 6.421330 6.865896 -86.158970 5.136698 6.657416 -75.280494 0.000004 0.000000 0.000000 0.012543 0.416128 -3.450354 6.423267 6.866026 -86.175172 5.136722 6.657419 -75.280515 0.000000 0.000000 -0.000001 0.564392 2.734794 -23.317007 6.421333 6.865881 -86.158964 5.136703 6.657420 -75.280535 0.000003 0.000000 0.000002 2.940834 6.669714 -31.923413 6.412874 2.779083 -86.104165 5.137692 6.657689 -75.289045 -0.000001 -0.000001 0.000002 4.686233 17.306019 -7.397481 -88.896456 51.161324 84.237816 -0.000015 48.099131 0.000022 3.868760 -19.292037 -3.913256 -1.996293 10.956697 -4.318707 6.729213 -33.289372 -1.664879 0.533959 -22.872953 -4.302594 -0.000005 -0.000002 -0.000000 0.707623 3.061038 -26.027459 3.455469 -6.010275 59.761054 2.327022 -5.194299 48.240585 -0.000000 -0.000001 -0.000003 0.707623 3.061038 -26.027457 3.455471 -6.010280 59.761048 2.327009 -5.194302 48.240585 -0.000002 -0.000003 -0.000001 0.053253 0.860652 -7.080634 3.455472 -6.010260 59.761082 2.327014 -5.194311 48.240571 0.000001 -0.000001 -0.000000 0.027458 -0.618627 5.083182 3.455469 -6.010270 59.761075 2.327004 -5.194291 48.240567 -0.000000 -0.000002 0.000000 -52.260458 3.470072 36.493547 45.263199 -2.297984 0.209065 -0.786283 3.186216 -24.334224 -1.782472 0.000007 0.000008 -0.000000 -0.000000 0.000000 -54.069898 -3.675769 -16.873351 55.874520 3.564708 2.169770 -13.696539 -2.242961 8.502583 -1.323847 0.000005 0.000003 -0.000000 -0.000003 -0.000000 
-9.679024 75.368011 -8.942141 13.718145 -26.289308 4.609421 11.908376 -3.073151 -3.831082 21.542003 -5.312435 -5.175519 21.517883 -5.323133 -5.254572 0.021005 4.021038 -1.927194 -24.347526 19.411901 -0.740885 -0.000003 0.000000 -0.000000 1.840879 -5.810569 17.941059 -32.278654 -11.354604 -44.247321 -0.000004 -63.317493 -0.000013 -6.208265 -3.435882 46.576494 -1.590201 -10.222346 3.703440 5.839425 38.192615 2.723961 1.135743 22.832810 4.413019 -0.000002 0.000000 0.000001 0.019281 -0.516130 4.280962 5.413053 6.723499 -77.652066 4.174164 6.328694 -66.784067 -0.000001 0.000000 -0.000001 0.019419 -0.518060 4.296935 5.414943 6.723907 -77.668260 4.174166 6.328702 -66.784080 -0.000000 0.000000 0.000001 0.227433 1.758497 -14.738134 5.413053 6.723515 -77.652066 4.174152 6.328697 -66.784087 -0.000000 -0.000000 0.000000 2.084943 6.244338 -23.201948 5.412915 2.636877 -77.689181 4.174846 6.329013 -66.790330 0.000000 -0.000001 -0.000001 4.708167 17.307252 -7.399024 -88.695252 51.613089 84.484775 -0.000018 48.403614 0.000013 5.857732 -14.604194 -3.709672 -1.996275 10.956693 -4.318713 6.729192 -33.289386 -1.664921 0.533956 -22.872961 -4.302614 -0.000001 -0.000002 -0.000002 0.733326 3.113025 -26.504611 2.608189 -5.431257 51.276583 1.613892 -4.458728 39.780531 -0.000000 -0.000000 -0.000000 0.733326 3.113025 -26.504611 2.608190 -5.431261 51.276580 1.613895 -4.458731 39.780531 0.000000 -0.000003 0.000000 0.228790 1.772395 -14.709323 2.608172 -5.431241 51.276593 1.613895 -4.458710 39.780538 0.000003 -0.000001 -0.000002 0.025535 0.596580 -4.901544 2.608183 -5.431228 51.276593 1.613876 -4.458713 39.780541 0.000003 0.000003 0.000002 -51.625534 3.877485 36.551426 45.216662 -2.100147 0.194405 -1.118335 3.233228 -24.026046 -1.732959 0.000001 0.000002 -0.000000 -0.000000 -0.000000 -53.472332 -3.904460 -16.621211 54.869502 3.896887 1.889138 -12.978273 -2.222118 8.690600 -1.324237 -0.000031 -0.000002 -0.000000 0.000003 0.000000 
